<?xml version="1.0" encoding="utf-8" standalone="no"?>
<!DOCTYPE svg PUBLIC "-//W3C//DTD SVG 1.1//EN"
  "http://www.w3.org/Graphics/SVG/1.1/DTD/svg11.dtd">
<svg xmlns:xlink="http://www.w3.org/1999/xlink" width="368.2057pt" height="266.878125pt" viewBox="0 0 368.2057 266.878125" xmlns="http://www.w3.org/2000/svg" version="1.1">
 <metadata>
  <rdf:RDF xmlns:dc="http://purl.org/dc/elements/1.1/" xmlns:cc="http://creativecommons.org/ns#" xmlns:rdf="http://www.w3.org/1999/02/22-rdf-syntax-ns#">
   <cc:Work>
    <dc:type rdf:resource="http://purl.org/dc/dcmitype/StillImage"/>
    <dc:date>2026-01-01</dc:date>
    <dc:format>image/svg+xml</dc:format>
    <dc:creator>
     <cc:Agent>
      <dc:title>Matplotlib v3.11.1, https://matplotlib.org/</dc:title>
     </cc:Agent>
    </dc:creator>
   </cc:Work>
  </rdf:RDF>
 </metadata>
 <defs>
  <style type="text/css">*{stroke-linejoin: round; stroke-linecap: butt}</style>
 </defs>
 <g id="figure_1">
  <g id="patch_1">
   <path d="M 0 266.878125 
L 368.2057 266.878125 
L 368.2057 0 
L 0 0 
z
" style="fill: #ffffff"/>
  </g>
  <g id="axes_1">
   <g id="patch_2">
    <path d="M 112.348663 265.34358 
C 145.325463 265.34358 176.956058 252.241758 200.274177 228.923639 
C 223.592296 205.60552 236.694117 173.974925 236.694117 140.998125 
C 236.694117 108.021325 223.592296 76.39073 200.274177 53.072611 
C 176.956058 29.754492 145.325463 16.65267 112.348663 16.65267 
C 79.371863 16.65267 47.741267 29.754492 24.423149 53.072611 
C 1.10503 76.39073 -11.996792 108.021325 -11.996792 140.998125 
C -11.996792 173.974925 1.10503 205.60552 24.423149 228.923639 
C 47.741267 252.241758 79.371863 265.34358 112.348663 265.34358 
L 112.348663 265.34358 
z
" clip-path="url(#p7af18bae91)" style="fill: none; opacity: 0.85; stroke: #1769aa; stroke-width: 1.3; stroke-linejoin: miter"/>
   </g>
   <g id="patch_3">
    <path d="M 125.138481 247.579943 
C 153.404309 247.579943 180.516248 236.34981 200.503207 216.362851 
C 220.490166 196.375892 231.720299 169.263954 231.720299 140.998125 
C 231.720299 112.732296 220.490166 85.620358 200.503207 65.633399 
C 180.516248 45.64644 153.404309 34.416307 125.138481 34.416307 
C 96.872652 34.416307 69.760714 45.64644 49.773754 65.633399 
C 29.786795 85.620358 18.556663 112.732296 18.556663 140.998125 
C 18.556663 169.263954 29.786795 196.375892 49.773754 216.362851 
C 69.760714 236.34981 96.872652 247.579943 125.138481 247.579943 
L 125.138481 247.579943 
z
" clip-path="url(#p7af18bae91)" style="fill: none; opacity: 0.85; stroke: #1769aa; stroke-width: 1.3; stroke-linejoin: miter"/>
   </g>
   <g id="patch_4">
    <path d="M 137.928299 229.816307 
C 161.483156 229.816307 184.076438 220.457863 200.732238 203.802064 
C 217.388037 187.146264 226.746481 164.552982 226.746481 140.998125 
C 226.746481 117.443268 217.388037 94.849986 200.732238 78.194186 
C 184.076438 61.538387 161.483156 52.179943 137.928299 52.179943 
C 114.373442 52.179943 91.78016 61.538387 75.12436 78.194186 
C 58.468561 94.849986 49.110117 117.443268 49.110117 140.998125 
C 49.110117 164.552982 58.468561 187.146264 75.12436 203.802064 
C 91.78016 220.457863 114.373442 229.816307 137.928299 229.816307 
L 137.928299 229.816307 
z
" clip-path="url(#p7af18bae91)" style="fill: none; opacity: 0.85; stroke: #1769aa; stroke-width: 1.3; stroke-linejoin: miter"/>
   </g>
   <g id="patch_5">
    <path d="M 150.718117 212.05267 
C 169.562003 212.05267 187.636629 204.565915 200.961268 191.241276 
C 214.285907 177.916637 221.772663 159.842011 221.772663 140.998125 
C 221.772663 122.154239 214.285907 104.079613 200.961268 90.754974 
C 187.636629 77.430335 169.562003 69.94358 150.718117 69.94358 
C 131.874231 69.94358 113.799606 77.430335 100.474966 90.754974 
C 87.150327 104.079613 79.663572 122.154239 79.663572 140.998125 
C 79.663572 159.842011 87.150327 177.916637 100.474966 191.241276 
C 113.799606 204.565915 131.874231 212.05267 150.718117 212.05267 
L 150.718117 212.05267 
z
" clip-path="url(#p7af18bae91)" style="fill: none; opacity: 0.85; stroke: #1769aa; stroke-width: 1.3; stroke-linejoin: miter"/>
   </g>
   <g id="patch_6">
    <path d="M 163.507935 194.289034 
C 177.64085 194.289034 191.196819 188.673968 201.190299 178.680488 
C 211.183778 168.687009 216.798844 155.131039 216.798844 140.998125 
C 216.798844 126.865211 211.183778 113.309241 201.190299 103.315762 
C 191.196819 93.322282 177.64085 87.707216 163.507935 87.707216 
C 149.375021 87.707216 135.819052 93.322282 125.825572 103.315762 
C 115.832093 113.309241 110.217026 126.865211 110.217026 140.998125 
C 110.217026 155.131039 115.832093 168.687009 125.825572 178.680488 
C 135.819052 188.673968 149.375021 194.289034 163.507935 194.289034 
L 163.507935 194.289034 
z
" clip-path="url(#p7af18bae91)" style="fill: none; opacity: 0.85; stroke: #1769aa; stroke-width: 1.3; stroke-linejoin: miter"/>
   </g>
   <g id="patch_7">
    <path d="M 176.297754 176.525398 
C 185.719696 176.525398 194.757009 172.78202 201.419329 166.1197 
C 208.081649 159.457381 211.825026 150.420068 211.825026 140.998125 
C 211.825026 131.576182 208.081649 122.538869 201.419329 115.87655 
C 194.757009 109.21423 185.719696 105.470852 176.297754 105.470852 
C 166.875811 105.470852 157.838498 109.21423 151.176178 115.87655 
C 144.513858 122.538869 140.770481 131.576182 140.770481 140.998125 
C 140.770481 150.420068 144.513858 159.457381 151.176178 166.1197 
C 157.838498 172.78202 166.875811 176.525398 176.297754 176.525398 
L 176.297754 176.525398 
z
" clip-path="url(#p7af18bae91)" style="fill: none; opacity: 0.85; stroke: #1769aa; stroke-width: 1.3; stroke-linejoin: miter"/>
   </g>
   <g id="patch_8">
    <path d="M 189.087572 158.761761 
C 193.798543 158.761761 198.3172 156.890073 201.648359 153.558913 
C 204.979519 150.227753 206.851208 145.709096 206.851208 140.998125 
C 206.851208 136.287154 204.979519 131.768497 201.648359 128.437337 
C 198.3172 125.106177 193.798543 123.234489 189.087572 123.234489 
C 184.3766 123.234489 179.857944 125.106177 176.526784 128.437337 
C 173.195624 131.768497 171.323935 136.287154 171.323935 140.998125 
C 171.323935 145.709096 173.195624 150.227753 176.526784 153.558913 
C 179.857944 156.890073 184.3766 158.761761 189.087572 158.761761 
L 189.087572 158.761761 
z
" clip-path="url(#p7af18bae91)" style="fill: none; opacity: 0.85; stroke: #1769aa; stroke-width: 1.3; stroke-linejoin: miter"/>
   </g>
   <g id="patch_9">
    <path d="M 208.318226 140.998125 
Q 216.531307 140.998125 222.50832 140.998125 
" style="fill: none; stroke: #b33a3a; stroke-width: 2; stroke-linecap: round"/>
    <path d="M 216.10832 137.798125 
L 222.50832 140.998125 
L 216.10832 144.198125 
z
" style="fill: #b33a3a; stroke: #b33a3a; stroke-width: 2; stroke-linecap: round"/>
   </g>
   <g id="text_1">
    <!-- source moves -->
    <g style="fill: #b33a3a" transform="translate(179.586854 134.780852) scale(0.105 -0.105)">
     <defs>
      <path id="DejaVuSans-56" d="M 2834 3397 
L 2834 2853 
Q 2591 2978 2328 3040 
Q 2066 3103 1784 3103 
Q 1356 3103 1142 2972 
Q 928 2841 928 2578 
Q 928 2378 1081 2264 
Q 1234 2150 1697 2047 
L 1894 2003 
Q 2506 1872 2764 1633 
Q 3022 1394 3022 966 
Q 3022 478 2636 193 
Q 2250 -91 1575 -91 
Q 1294 -91 989 -36 
Q 684 19 347 128 
L 347 722 
Q 666 556 975 473 
Q 1284 391 1588 391 
Q 1994 391 2212 530 
Q 2431 669 2431 922 
Q 2431 1156 2273 1281 
Q 2116 1406 1581 1522 
L 1381 1569 
Q 847 1681 609 1914 
Q 372 2147 372 2553 
Q 372 3047 722 3315 
Q 1072 3584 1716 3584 
Q 2034 3584 2315 3537 
Q 2597 3491 2834 3397 
z
" transform="scale(0.015625)"/>
      <path id="DejaVuSans-52" d="M 1959 3097 
Q 1497 3097 1228 2736 
Q 959 2375 959 1747 
Q 959 1119 1226 758 
Q 1494 397 1959 397 
Q 2419 397 2687 759 
Q 2956 1122 2956 1747 
Q 2956 2369 2687 2733 
Q 2419 3097 1959 3097 
z
M 1959 3584 
Q 2709 3584 3137 3096 
Q 3566 2609 3566 1747 
Q 3566 888 3137 398 
Q 2709 -91 1959 -91 
Q 1206 -91 779 398 
Q 353 888 353 1747 
Q 353 2609 779 3096 
Q 1206 3584 1959 3584 
z
" transform="scale(0.015625)"/>
      <path id="DejaVuSans-58" d="M 544 1381 
L 544 3500 
L 1119 3500 
L 1119 1403 
Q 1119 906 1312 657 
Q 1506 409 1894 409 
Q 2359 409 2629 706 
Q 2900 1003 2900 1516 
L 2900 3500 
L 3475 3500 
L 3475 0 
L 2900 0 
L 2900 538 
Q 2691 219 2414 64 
Q 2138 -91 1772 -91 
Q 1169 -91 856 284 
Q 544 659 544 1381 
z
M 1991 3584 
L 1991 3584 
z
" transform="scale(0.015625)"/>
      <path id="DejaVuSans-55" d="M 2631 2963 
Q 2534 3019 2420 3045 
Q 2306 3072 2169 3072 
Q 1681 3072 1420 2755 
Q 1159 2438 1159 1844 
L 1159 0 
L 581 0 
L 581 3500 
L 1159 3500 
L 1159 2956 
Q 1341 3275 1631 3429 
Q 1922 3584 2338 3584 
Q 2397 3584 2469 3576 
Q 2541 3569 2628 3553 
L 2631 2963 
z
" transform="scale(0.015625)"/>
      <path id="DejaVuSans-46" d="M 3122 3366 
L 3122 2828 
Q 2878 2963 2633 3030 
Q 2388 3097 2138 3097 
Q 1578 3097 1268 2742 
Q 959 2388 959 1747 
Q 959 1106 1268 751 
Q 1578 397 2138 397 
Q 2388 397 2633 464 
Q 2878 531 3122 666 
L 3122 134 
Q 2881 22 2623 -34 
Q 2366 -91 2075 -91 
Q 1284 -91 818 406 
Q 353 903 353 1747 
Q 353 2603 823 3093 
Q 1294 3584 2113 3584 
Q 2378 3584 2631 3529 
Q 2884 3475 3122 3366 
z
" transform="scale(0.015625)"/>
      <path id="DejaVuSans-48" d="M 3597 1894 
L 3597 1613 
L 953 1613 
Q 991 1019 1311 708 
Q 1631 397 2203 397 
Q 2534 397 2845 478 
Q 3156 559 3463 722 
L 3463 178 
Q 3153 47 2828 -22 
Q 2503 -91 2169 -91 
Q 1331 -91 842 396 
Q 353 884 353 1716 
Q 353 2575 817 3079 
Q 1281 3584 2069 3584 
Q 2775 3584 3186 3129 
Q 3597 2675 3597 1894 
z
M 3022 2063 
Q 3016 2534 2758 2815 
Q 2500 3097 2075 3097 
Q 1594 3097 1305 2825 
Q 1016 2553 972 2059 
L 3022 2063 
z
" transform="scale(0.015625)"/>
      <path id="DejaVuSans-3" transform="scale(0.015625)"/>
      <path id="DejaVuSans-50" d="M 3328 2828 
Q 3544 3216 3844 3400 
Q 4144 3584 4550 3584 
Q 5097 3584 5394 3201 
Q 5691 2819 5691 2113 
L 5691 0 
L 5113 0 
L 5113 2094 
Q 5113 2597 4934 2840 
Q 4756 3084 4391 3084 
Q 3944 3084 3684 2787 
Q 3425 2491 3425 1978 
L 3425 0 
L 2847 0 
L 2847 2094 
Q 2847 2600 2669 2842 
Q 2491 3084 2119 3084 
Q 1678 3084 1418 2786 
Q 1159 2488 1159 1978 
L 1159 0 
L 581 0 
L 581 3500 
L 1159 3500 
L 1159 2956 
Q 1356 3278 1631 3431 
Q 1906 3584 2284 3584 
Q 2666 3584 2933 3390 
Q 3200 3197 3328 2828 
z
" transform="scale(0.015625)"/>
      <path id="DejaVuSans-59" d="M 191 3500 
L 800 3500 
L 1894 563 
L 2988 3500 
L 3597 3500 
L 2284 0 
L 1503 0 
L 191 3500 
z
" transform="scale(0.015625)"/>
     </defs>
     <use xlink:href="#DejaVuSans-56"/>
     <use xlink:href="#DejaVuSans-52" transform="translate(52.09375 0)"/>
     <use xlink:href="#DejaVuSans-58" transform="translate(113.28125 0)"/>
     <use xlink:href="#DejaVuSans-55" transform="translate(176.65625 0)"/>
     <use xlink:href="#DejaVuSans-46" transform="translate(215.5625 0)"/>
     <use xlink:href="#DejaVuSans-48" transform="translate(270.546875 0)"/>
     <use xlink:href="#DejaVuSans-3" transform="translate(332.078125 0)"/>
     <use xlink:href="#DejaVuSans-50" transform="translate(363.859375 0)"/>
     <use xlink:href="#DejaVuSans-52" transform="translate(461.265625 0)"/>
     <use xlink:href="#DejaVuSans-59" transform="translate(522.453125 0)"/>
     <use xlink:href="#DejaVuSans-48" transform="translate(581.640625 0)"/>
     <use xlink:href="#DejaVuSans-56" transform="translate(643.171875 0)"/>
    </g>
   </g>
   <g id="text_2">
    <!-- ahead: -->
    <g style="fill: #2e7d5b" transform="translate(304.20527 131.123203) scale(0.105 -0.105)">
     <defs>
      <path id="DejaVuSans-Bold-44" d="M 2106 1575 
Q 1756 1575 1579 1456 
Q 1403 1338 1403 1106 
Q 1403 894 1545 773 
Q 1688 653 1941 653 
Q 2256 653 2472 879 
Q 2688 1106 2688 1447 
L 2688 1575 
L 2106 1575 
z
M 3816 1997 
L 3816 0 
L 2688 0 
L 2688 519 
Q 2463 200 2181 54 
Q 1900 -91 1497 -91 
Q 953 -91 614 226 
Q 275 544 275 1050 
Q 275 1666 698 1953 
Q 1122 2241 2028 2241 
L 2688 2241 
L 2688 2328 
Q 2688 2594 2478 2717 
Q 2269 2841 1825 2841 
Q 1466 2841 1156 2769 
Q 847 2697 581 2553 
L 581 3406 
Q 941 3494 1303 3539 
Q 1666 3584 2028 3584 
Q 2975 3584 3395 3211 
Q 3816 2838 3816 1997 
z
" transform="scale(0.015625)"/>
      <path id="DejaVuSans-Bold-4b" d="M 4056 2131 
L 4056 0 
L 2931 0 
L 2931 347 
L 2931 1625 
Q 2931 2084 2911 2256 
Q 2891 2428 2841 2509 
Q 2775 2619 2662 2680 
Q 2550 2741 2406 2741 
Q 2056 2741 1856 2470 
Q 1656 2200 1656 1722 
L 1656 0 
L 538 0 
L 538 4863 
L 1656 4863 
L 1656 2988 
Q 1909 3294 2193 3439 
Q 2478 3584 2822 3584 
Q 3428 3584 3742 3212 
Q 4056 2841 4056 2131 
z
" transform="scale(0.015625)"/>
      <path id="DejaVuSans-Bold-48" d="M 4031 1759 
L 4031 1441 
L 1416 1441 
Q 1456 1047 1700 850 
Q 1944 653 2381 653 
Q 2734 653 3104 758 
Q 3475 863 3866 1075 
L 3866 213 
Q 3469 63 3072 -14 
Q 2675 -91 2278 -91 
Q 1328 -91 801 392 
Q 275 875 275 1747 
Q 275 2603 792 3093 
Q 1309 3584 2216 3584 
Q 3041 3584 3536 3087 
Q 4031 2591 4031 1759 
z
M 2881 2131 
Q 2881 2450 2695 2645 
Q 2509 2841 2209 2841 
Q 1884 2841 1681 2658 
Q 1478 2475 1428 2131 
L 2881 2131 
z
" transform="scale(0.015625)"/>
      <path id="DejaVuSans-Bold-47" d="M 2919 2988 
L 2919 4863 
L 4044 4863 
L 4044 0 
L 2919 0 
L 2919 506 
Q 2688 197 2409 53 
Q 2131 -91 1766 -91 
Q 1119 -91 703 423 
Q 288 938 288 1747 
Q 288 2556 703 3070 
Q 1119 3584 1766 3584 
Q 2128 3584 2408 3439 
Q 2688 3294 2919 2988 
z
M 2181 722 
Q 2541 722 2730 984 
Q 2919 1247 2919 1747 
Q 2919 2247 2730 2509 
Q 2541 2772 2181 2772 
Q 1825 2772 1636 2509 
Q 1447 2247 1447 1747 
Q 1447 1247 1636 984 
Q 1825 722 2181 722 
z
" transform="scale(0.015625)"/>
      <path id="DejaVuSans-Bold-1d" d="M 716 3500 
L 1844 3500 
L 1844 2291 
L 716 2291 
L 716 3500 
z
M 716 1209 
L 1844 1209 
L 1844 0 
L 716 0 
L 716 1209 
z
" transform="scale(0.015625)"/>
     </defs>
     <use xlink:href="#DejaVuSans-Bold-44"/>
     <use xlink:href="#DejaVuSans-Bold-4b" transform="translate(67.484375 0)"/>
     <use xlink:href="#DejaVuSans-Bold-48" transform="translate(138.671875 0)"/>
     <use xlink:href="#DejaVuSans-Bold-44" transform="translate(206.5 0)"/>
     <use xlink:href="#DejaVuSans-Bold-47" transform="translate(273.984375 0)"/>
     <use xlink:href="#DejaVuSans-Bold-1d" transform="translate(345.5625 0)"/>
    </g>
    <!-- bunched, -->
    <g style="fill: #2e7d5b" transform="translate(297.051325 143.726074) scale(0.105 -0.105)">
     <defs>
      <path id="DejaVuSans-Bold-45" d="M 2400 722 
Q 2759 722 2948 984 
Q 3138 1247 3138 1747 
Q 3138 2247 2948 2509 
Q 2759 2772 2400 2772 
Q 2041 2772 1848 2508 
Q 1656 2244 1656 1747 
Q 1656 1250 1848 986 
Q 2041 722 2400 722 
z
M 1656 2988 
Q 1888 3294 2169 3439 
Q 2450 3584 2816 3584 
Q 3463 3584 3878 3070 
Q 4294 2556 4294 1747 
Q 4294 938 3878 423 
Q 3463 -91 2816 -91 
Q 2450 -91 2169 54 
Q 1888 200 1656 506 
L 1656 0 
L 538 0 
L 538 4863 
L 1656 4863 
L 1656 2988 
z
" transform="scale(0.015625)"/>
      <path id="DejaVuSans-Bold-58" d="M 500 1363 
L 500 3500 
L 1625 3500 
L 1625 3150 
Q 1625 2866 1622 2436 
Q 1619 2006 1619 1863 
Q 1619 1441 1641 1255 
Q 1663 1069 1716 984 
Q 1784 875 1895 815 
Q 2006 756 2150 756 
Q 2500 756 2700 1025 
Q 2900 1294 2900 1772 
L 2900 3500 
L 4019 3500 
L 4019 0 
L 2900 0 
L 2900 506 
Q 2647 200 2364 54 
Q 2081 -91 1741 -91 
Q 1134 -91 817 281 
Q 500 653 500 1363 
z
" transform="scale(0.015625)"/>
      <path id="DejaVuSans-Bold-51" d="M 4056 2131 
L 4056 0 
L 2931 0 
L 2931 347 
L 2931 1631 
Q 2931 2084 2911 2256 
Q 2891 2428 2841 2509 
Q 2775 2619 2662 2680 
Q 2550 2741 2406 2741 
Q 2056 2741 1856 2470 
Q 1656 2200 1656 1722 
L 1656 0 
L 538 0 
L 538 3500 
L 1656 3500 
L 1656 2988 
Q 1909 3294 2193 3439 
Q 2478 3584 2822 3584 
Q 3428 3584 3742 3212 
Q 4056 2841 4056 2131 
z
" transform="scale(0.015625)"/>
      <path id="DejaVuSans-Bold-46" d="M 3366 3391 
L 3366 2478 
Q 3138 2634 2908 2709 
Q 2678 2784 2431 2784 
Q 1963 2784 1702 2511 
Q 1441 2238 1441 1747 
Q 1441 1256 1702 982 
Q 1963 709 2431 709 
Q 2694 709 2930 787 
Q 3166 866 3366 1019 
L 3366 103 
Q 3103 6 2833 -42 
Q 2563 -91 2291 -91 
Q 1344 -91 809 395 
Q 275 881 275 1747 
Q 275 2613 809 3098 
Q 1344 3584 2291 3584 
Q 2566 3584 2833 3536 
Q 3100 3488 3366 3391 
z
" transform="scale(0.015625)"/>
      <path id="DejaVuSans-Bold-f" d="M 653 1209 
L 1778 1209 
L 1778 256 
L 1006 -909 
L 341 -909 
L 653 256 
L 653 1209 
z
" transform="scale(0.015625)"/>
     </defs>
     <use xlink:href="#DejaVuSans-Bold-45"/>
     <use xlink:href="#DejaVuSans-Bold-58" transform="translate(71.578125 0)"/>
     <use xlink:href="#DejaVuSans-Bold-51" transform="translate(142.765625 0)"/>
     <use xlink:href="#DejaVuSans-Bold-46" transform="translate(213.953125 0)"/>
     <use xlink:href="#DejaVuSans-Bold-4b" transform="translate(273.234375 0)"/>
     <use xlink:href="#DejaVuSans-Bold-48" transform="translate(344.421875 0)"/>
     <use xlink:href="#DejaVuSans-Bold-47" transform="translate(412.25 0)"/>
     <use xlink:href="#DejaVuSans-Bold-f" transform="translate(483.828125 0)"/>
    </g>
    <!-- pitch raised -->
    <g style="fill: #2e7d5b" transform="translate(289.327262 156.328945) scale(0.105 -0.105)">
     <defs>
      <path id="DejaVuSans-Bold-53" d="M 1656 506 
L 1656 -1331 
L 538 -1331 
L 538 3500 
L 1656 3500 
L 1656 2988 
Q 1888 3294 2169 3439 
Q 2450 3584 2816 3584 
Q 3463 3584 3878 3070 
Q 4294 2556 4294 1747 
Q 4294 938 3878 423 
Q 3463 -91 2816 -91 
Q 2450 -91 2169 54 
Q 1888 200 1656 506 
z
M 2400 2772 
Q 2041 2772 1848 2508 
Q 1656 2244 1656 1747 
Q 1656 1250 1848 986 
Q 2041 722 2400 722 
Q 2759 722 2948 984 
Q 3138 1247 3138 1747 
Q 3138 2247 2948 2509 
Q 2759 2772 2400 2772 
z
" transform="scale(0.015625)"/>
      <path id="DejaVuSans-Bold-4c" d="M 538 3500 
L 1656 3500 
L 1656 0 
L 538 0 
L 538 3500 
z
M 538 4863 
L 1656 4863 
L 1656 3950 
L 538 3950 
L 538 4863 
z
" transform="scale(0.015625)"/>
      <path id="DejaVuSans-Bold-57" d="M 1759 4494 
L 1759 3500 
L 2913 3500 
L 2913 2700 
L 1759 2700 
L 1759 1216 
Q 1759 972 1856 886 
Q 1953 800 2241 800 
L 2816 800 
L 2816 0 
L 1856 0 
Q 1194 0 917 276 
Q 641 553 641 1216 
L 641 2700 
L 84 2700 
L 84 3500 
L 641 3500 
L 641 4494 
L 1759 4494 
z
" transform="scale(0.015625)"/>
      <path id="DejaVuSans-Bold-3" transform="scale(0.015625)"/>
      <path id="DejaVuSans-Bold-55" d="M 3138 2547 
Q 2991 2616 2845 2648 
Q 2700 2681 2553 2681 
Q 2122 2681 1889 2404 
Q 1656 2128 1656 1613 
L 1656 0 
L 538 0 
L 538 3500 
L 1656 3500 
L 1656 2925 
Q 1872 3269 2151 3426 
Q 2431 3584 2822 3584 
Q 2878 3584 2943 3579 
Q 3009 3575 3134 3559 
L 3138 2547 
z
" transform="scale(0.015625)"/>
      <path id="DejaVuSans-Bold-56" d="M 3272 3391 
L 3272 2541 
Q 2913 2691 2578 2766 
Q 2244 2841 1947 2841 
Q 1628 2841 1473 2761 
Q 1319 2681 1319 2516 
Q 1319 2381 1436 2309 
Q 1553 2238 1856 2203 
L 2053 2175 
Q 2913 2066 3209 1816 
Q 3506 1566 3506 1031 
Q 3506 472 3093 190 
Q 2681 -91 1863 -91 
Q 1516 -91 1145 -36 
Q 775 19 384 128 
L 384 978 
Q 719 816 1070 734 
Q 1422 653 1784 653 
Q 2113 653 2278 743 
Q 2444 834 2444 1013 
Q 2444 1163 2330 1236 
Q 2216 1309 1875 1350 
L 1678 1375 
Q 931 1469 631 1722 
Q 331 1975 331 2491 
Q 331 3047 712 3315 
Q 1094 3584 1881 3584 
Q 2191 3584 2531 3537 
Q 2872 3491 3272 3391 
z
" transform="scale(0.015625)"/>
     </defs>
     <use xlink:href="#DejaVuSans-Bold-53"/>
     <use xlink:href="#DejaVuSans-Bold-4c" transform="translate(71.578125 0)"/>
     <use xlink:href="#DejaVuSans-Bold-57" transform="translate(105.859375 0)"/>
     <use xlink:href="#DejaVuSans-Bold-46" transform="translate(153.65625 0)"/>
     <use xlink:href="#DejaVuSans-Bold-4b" transform="translate(212.9375 0)"/>
     <use xlink:href="#DejaVuSans-Bold-3" transform="translate(284.125 0)"/>
     <use xlink:href="#DejaVuSans-Bold-55" transform="translate(318.9375 0)"/>
     <use xlink:href="#DejaVuSans-Bold-44" transform="translate(368.25 0)"/>
     <use xlink:href="#DejaVuSans-Bold-4c" transform="translate(435.734375 0)"/>
     <use xlink:href="#DejaVuSans-Bold-56" transform="translate(470.015625 0)"/>
     <use xlink:href="#DejaVuSans-Bold-48" transform="translate(529.53125 0)"/>
     <use xlink:href="#DejaVuSans-Bold-47" transform="translate(597.359375 0)"/>
    </g>
   </g>
   <g id="text_3">
    <!-- behind: -->
    <g style="fill: #6a4c93" transform="translate(26.659805 131.123203) scale(0.105 -0.105)">
     <use xlink:href="#DejaVuSans-Bold-45"/>
     <use xlink:href="#DejaVuSans-Bold-48" transform="translate(71.578125 0)"/>
     <use xlink:href="#DejaVuSans-Bold-4b" transform="translate(139.40625 0)"/>
     <use xlink:href="#DejaVuSans-Bold-4c" transform="translate(210.59375 0)"/>
     <use xlink:href="#DejaVuSans-Bold-51" transform="translate(244.875 0)"/>
     <use xlink:href="#DejaVuSans-Bold-47" transform="translate(316.0625 0)"/>
     <use xlink:href="#DejaVuSans-Bold-1d" transform="translate(387.640625 0)"/>
    </g>
    <!-- stretched, -->
    <g style="fill: #6a4c93" transform="translate(18.654375 143.726074) scale(0.105 -0.105)">
     <use xlink:href="#DejaVuSans-Bold-56"/>
     <use xlink:href="#DejaVuSans-Bold-57" transform="translate(59.515625 0)"/>
     <use xlink:href="#DejaVuSans-Bold-55" transform="translate(107.3125 0)"/>
     <use xlink:href="#DejaVuSans-Bold-48" transform="translate(156.625 0)"/>
     <use xlink:href="#DejaVuSans-Bold-57" transform="translate(224.453125 0)"/>
     <use xlink:href="#DejaVuSans-Bold-46" transform="translate(272.25 0)"/>
     <use xlink:href="#DejaVuSans-Bold-4b" transform="translate(331.53125 0)"/>
     <use xlink:href="#DejaVuSans-Bold-48" transform="translate(402.71875 0)"/>
     <use xlink:href="#DejaVuSans-Bold-47" transform="translate(470.546875 0)"/>
     <use xlink:href="#DejaVuSans-Bold-f" transform="translate(542.125 0)"/>
    </g>
    <!-- pitch lowered -->
    <g style="fill: #6a4c93" transform="translate(8.64 156.328945) scale(0.105 -0.105)">
     <defs>
      <path id="DejaVuSans-Bold-4f" d="M 538 4863 
L 1656 4863 
L 1656 0 
L 538 0 
L 538 4863 
z
" transform="scale(0.015625)"/>
      <path id="DejaVuSans-Bold-52" d="M 2203 2784 
Q 1831 2784 1636 2517 
Q 1441 2250 1441 1747 
Q 1441 1244 1636 976 
Q 1831 709 2203 709 
Q 2569 709 2762 976 
Q 2956 1244 2956 1747 
Q 2956 2250 2762 2517 
Q 2569 2784 2203 2784 
z
M 2203 3584 
Q 3106 3584 3614 3096 
Q 4122 2609 4122 1747 
Q 4122 884 3614 396 
Q 3106 -91 2203 -91 
Q 1297 -91 786 396 
Q 275 884 275 1747 
Q 275 2609 786 3096 
Q 1297 3584 2203 3584 
z
" transform="scale(0.015625)"/>
      <path id="DejaVuSans-Bold-5a" d="M 225 3500 
L 1313 3500 
L 1900 1088 
L 2491 3500 
L 3425 3500 
L 4013 1113 
L 4603 3500 
L 5691 3500 
L 4769 0 
L 3547 0 
L 2956 2406 
L 2369 0 
L 1147 0 
L 225 3500 
z
" transform="scale(0.015625)"/>
     </defs>
     <use xlink:href="#DejaVuSans-Bold-53"/>
     <use xlink:href="#DejaVuSans-Bold-4c" transform="translate(71.578125 0)"/>
     <use xlink:href="#DejaVuSans-Bold-57" transform="translate(105.859375 0)"/>
     <use xlink:href="#DejaVuSans-Bold-46" transform="translate(153.65625 0)"/>
     <use xlink:href="#DejaVuSans-Bold-4b" transform="translate(212.9375 0)"/>
     <use xlink:href="#DejaVuSans-Bold-3" transform="translate(284.125 0)"/>
     <use xlink:href="#DejaVuSans-Bold-4f" transform="translate(318.9375 0)"/>
     <use xlink:href="#DejaVuSans-Bold-52" transform="translate(353.21875 0)"/>
     <use xlink:href="#DejaVuSans-Bold-5a" transform="translate(421.921875 0)"/>
     <use xlink:href="#DejaVuSans-Bold-48" transform="translate(514.3125 0)"/>
     <use xlink:href="#DejaVuSans-Bold-55" transform="translate(582.140625 0)"/>
     <use xlink:href="#DejaVuSans-Bold-48" transform="translate(631.453125 0)"/>
     <use xlink:href="#DejaVuSans-Bold-47" transform="translate(699.28125 0)"/>
    </g>
   </g>
   <g id="text_4">
    <!-- Wavefronts from a source moving to the right -->
    <g transform="translate(29.447248 17.758125) scale(0.12 -0.12)">
     <defs>
      <path id="DejaVuSans-Bold-3a" d="M 191 4666 
L 1344 4666 
L 2150 1275 
L 2950 4666 
L 4109 4666 
L 4909 1275 
L 5716 4666 
L 6859 4666 
L 5759 0 
L 4372 0 
L 3525 3547 
L 2688 0 
L 1300 0 
L 191 4666 
z
" transform="scale(0.015625)"/>
      <path id="DejaVuSans-Bold-59" d="M 97 3500 
L 1216 3500 
L 2088 1081 
L 2956 3500 
L 4078 3500 
L 2700 0 
L 1472 0 
L 97 3500 
z
" transform="scale(0.015625)"/>
      <path id="DejaVuSans-Bold-49" d="M 2841 4863 
L 2841 4128 
L 2222 4128 
Q 1984 4128 1890 4042 
Q 1797 3956 1797 3744 
L 1797 3500 
L 2753 3500 
L 2753 2700 
L 1797 2700 
L 1797 0 
L 678 0 
L 678 2700 
L 122 2700 
L 122 3500 
L 678 3500 
L 678 3744 
Q 678 4316 997 4589 
Q 1316 4863 1984 4863 
L 2841 4863 
z
" transform="scale(0.015625)"/>
      <path id="DejaVuSans-Bold-50" d="M 3781 2919 
Q 3994 3244 4286 3414 
Q 4578 3584 4928 3584 
Q 5531 3584 5847 3212 
Q 6163 2841 6163 2131 
L 6163 0 
L 5038 0 
L 5038 1825 
Q 5041 1866 5042 1909 
Q 5044 1953 5044 2034 
Q 5044 2406 4934 2573 
Q 4825 2741 4581 2741 
Q 4263 2741 4089 2478 
Q 3916 2216 3909 1719 
L 3909 0 
L 2784 0 
L 2784 1825 
Q 2784 2406 2684 2573 
Q 2584 2741 2328 2741 
Q 2006 2741 1831 2477 
Q 1656 2213 1656 1722 
L 1656 0 
L 531 0 
L 531 3500 
L 1656 3500 
L 1656 2988 
Q 1863 3284 2130 3434 
Q 2397 3584 2719 3584 
Q 3081 3584 3359 3409 
Q 3638 3234 3781 2919 
z
" transform="scale(0.015625)"/>
      <path id="DejaVuSans-Bold-4a" d="M 2919 594 
Q 2688 288 2409 144 
Q 2131 0 1766 0 
Q 1125 0 706 504 
Q 288 1009 288 1791 
Q 288 2575 706 3076 
Q 1125 3578 1766 3578 
Q 2131 3578 2409 3434 
Q 2688 3291 2919 2981 
L 2919 3500 
L 4044 3500 
L 4044 353 
Q 4044 -491 3511 -936 
Q 2978 -1381 1966 -1381 
Q 1638 -1381 1331 -1331 
Q 1025 -1281 716 -1178 
L 716 -306 
Q 1009 -475 1290 -558 
Q 1572 -641 1856 -641 
Q 2406 -641 2662 -400 
Q 2919 -159 2919 353 
L 2919 594 
z
M 2181 2772 
Q 1834 2772 1640 2515 
Q 1447 2259 1447 1791 
Q 1447 1309 1634 1061 
Q 1822 813 2181 813 
Q 2531 813 2725 1069 
Q 2919 1325 2919 1791 
Q 2919 2259 2725 2515 
Q 2531 2772 2181 2772 
z
" transform="scale(0.015625)"/>
     </defs>
     <use xlink:href="#DejaVuSans-Bold-3a"/>
     <use xlink:href="#DejaVuSans-Bold-44" transform="translate(106.734375 0)"/>
     <use xlink:href="#DejaVuSans-Bold-59" transform="translate(174.21875 0)"/>
     <use xlink:href="#DejaVuSans-Bold-48" transform="translate(239.40625 0)"/>
     <use xlink:href="#DejaVuSans-Bold-49" transform="translate(307.234375 0)"/>
     <use xlink:href="#DejaVuSans-Bold-55" transform="translate(350.734375 0)"/>
     <use xlink:href="#DejaVuSans-Bold-52" transform="translate(400.046875 0)"/>
     <use xlink:href="#DejaVuSans-Bold-51" transform="translate(468.75 0)"/>
     <use xlink:href="#DejaVuSans-Bold-57" transform="translate(539.9375 0)"/>
     <use xlink:href="#DejaVuSans-Bold-56" transform="translate(587.734375 0)"/>
     <use xlink:href="#DejaVuSans-Bold-3" transform="translate(647.25 0)"/>
     <use xlink:href="#DejaVuSans-Bold-49" transform="translate(682.0625 0)"/>
     <use xlink:href="#DejaVuSans-Bold-55" transform="translate(725.5625 0)"/>
     <use xlink:href="#DejaVuSans-Bold-52" transform="translate(774.875 0)"/>
     <use xlink:href="#DejaVuSans-Bold-50" transform="translate(843.578125 0)"/>
     <use xlink:href="#DejaVuSans-Bold-3" transform="translate(947.78125 0)"/>
     <use xlink:href="#DejaVuSans-Bold-44" transform="translate(982.59375 0)"/>
     <use xlink:href="#DejaVuSans-Bold-3" transform="translate(1050.078125 0)"/>
     <use xlink:href="#DejaVuSans-Bold-56" transform="translate(1084.890625 0)"/>
     <use xlink:href="#DejaVuSans-Bold-52" transform="translate(1144.40625 0)"/>
     <use xlink:href="#DejaVuSans-Bold-58" transform="translate(1213.109375 0)"/>
     <use xlink:href="#DejaVuSans-Bold-55" transform="translate(1284.296875 0)"/>
     <use xlink:href="#DejaVuSans-Bold-46" transform="translate(1333.609375 0)"/>
     <use xlink:href="#DejaVuSans-Bold-48" transform="translate(1392.890625 0)"/>
     <use xlink:href="#DejaVuSans-Bold-3" transform="translate(1460.71875 0)"/>
     <use xlink:href="#DejaVuSans-Bold-50" transform="translate(1495.53125 0)"/>
     <use xlink:href="#DejaVuSans-Bold-52" transform="translate(1599.734375 0)"/>
     <use xlink:href="#DejaVuSans-Bold-59" transform="translate(1668.4375 0)"/>
     <use xlink:href="#DejaVuSans-Bold-4c" transform="translate(1733.625 0)"/>
     <use xlink:href="#DejaVuSans-Bold-51" transform="translate(1767.90625 0)"/>
     <use xlink:href="#DejaVuSans-Bold-4a" transform="translate(1839.09375 0)"/>
     <use xlink:href="#DejaVuSans-Bold-3" transform="translate(1910.671875 0)"/>
     <use xlink:href="#DejaVuSans-Bold-57" transform="translate(1945.484375 0)"/>
     <use xlink:href="#DejaVuSans-Bold-52" transform="translate(1993.28125 0)"/>
     <use xlink:href="#DejaVuSans-Bold-3" transform="translate(2061.984375 0)"/>
     <use xlink:href="#DejaVuSans-Bold-57" transform="translate(2096.796875 0)"/>
     <use xlink:href="#DejaVuSans-Bold-4b" transform="translate(2144.59375 0)"/>
     <use xlink:href="#DejaVuSans-Bold-48" transform="translate(2215.78125 0)"/>
     <use xlink:href="#DejaVuSans-Bold-3" transform="translate(2283.609375 0)"/>
     <use xlink:href="#DejaVuSans-Bold-55" transform="translate(2318.421875 0)"/>
     <use xlink:href="#DejaVuSans-Bold-4c" transform="translate(2367.734375 0)"/>
     <use xlink:href="#DejaVuSans-Bold-4a" transform="translate(2402.015625 0)"/>
     <use xlink:href="#DejaVuSans-Bold-4b" transform="translate(2473.59375 0)"/>
     <use xlink:href="#DejaVuSans-Bold-57" transform="translate(2544.78125 0)"/>
    </g>
   </g>
   <g id="line2d_1">
    <defs>
     <path id="m86e6c0f784" d="M 0 4.5 
C 1.193414 4.5 2.338109 4.025852 3.181981 3.181981 
C 4.025852 2.338109 4.5 1.193414 4.5 0 
C 4.5 -1.193414 4.025852 -2.338109 3.181981 -3.181981 
C 2.338109 -4.025852 1.193414 -4.5 0 -4.5 
C -1.193414 -4.5 -2.338109 -4.025852 -3.181981 -3.181981 
C -4.025852 -2.338109 -4.5 -1.193414 -4.5 0 
C -4.5 1.193414 -4.025852 2.338109 -3.181981 3.181981 
C -2.338109 4.025852 -1.193414 4.5 0 4.5 
z
" style="stroke: #b33a3a"/>
    </defs>
    <g clip-path="url(#p7af18bae91)">
     <use xlink:href="#m86e6c0f784" x="201.87739" y="140.998125" style="fill: #b33a3a; stroke: #b33a3a"/>
    </g>
   </g>
  </g>
 </g>
 <defs>
  <clipPath id="p7af18bae91">
   <rect x="15.359208" y="23.758125" width="339.285455" height="234.48"/>
  </clipPath>
 </defs>
</svg>
