<?xml version="1.0" encoding="UTF-8"?>
<svg pointer-events="none" stroke-width="1" stroke-dasharray="none" fill="black" stroke="black" shadowColor="black" font-size="10pt" font-weight="normal" font-style="normal" width="880" height="490" viewBox="0 0 880 490" xmlns="http://www.w3.org/2000/svg" role="img" aria-labelledby="harmonic-series-on-c2-title harmonic-series-on-c2-description" preserveAspectRatio="xMidYMid meet"><title id="harmonic-series-on-c2-title">harmonic series on c2</title><desc id="harmonic-series-on-c2-description">The first sixteen harmonics of C2 on a bass and a treble stave, each labelled with its harmonic number and its deviation in cents from the nearest equal-tempered note. The seventh and fourteenth partials are 31 cents flat, the eleventh is 49 cents sharp, and the thirteenth is 41 cents sharp; the octaves and fifths are within a few cents.</desc><g class="notation-overlay"><text x="40" y="22" font-family="system-ui, sans-serif" font-size="15" font-weight="700">Harmonics 1–8</text><text x="71" y="186" font-family="system-ui, sans-serif" font-size="15" font-weight="700" text-anchor="middle">1</text><text x="71" y="206" font-family="system-ui, sans-serif" font-size="13" text-anchor="middle" fill="#555555">0</text><text x="159.28125" y="186" font-family="system-ui, sans-serif" font-size="15" font-weight="700" text-anchor="middle">2</text><text x="159.28125" y="206" font-family="system-ui, sans-serif" font-size="13" text-anchor="middle" fill="#555555">0</text><text x="247.5625" y="186" font-family="system-ui, sans-serif" font-size="15" font-weight="700" text-anchor="middle">3</text><text x="247.5625" y="206" font-family="system-ui, sans-serif" font-size="13" text-anchor="middle" fill="#555555">+2</text><text x="335.84375" y="186" font-family="system-ui, sans-serif" font-size="15" font-weight="700" text-anchor="middle">4</text><text x="335.84375" y="206" font-family="system-ui, sans-serif" font-size="13" text-anchor="middle" fill="#555555">0</text><text x="424.125" y="186" font-family="system-ui, sans-serif" font-size="15" font-weight="700" text-anchor="middle">5</text><text x="424.125" y="206" font-family="system-ui, sans-serif" font-size="13" text-anchor="middle" fill="#555555">−14</text><text x="512.40625" y="186" font-family="system-ui, sans-serif" font-size="15" font-weight="700" text-anchor="middle">6</text><text x="512.40625" y="206" font-family="system-ui, sans-serif" font-size="13" text-anchor="middle" fill="#555555">+2</text><text x="600.6875" y="186" font-family="system-ui, sans-serif" font-size="15" font-weight="700" text-anchor="middle">7</text><text x="600.6875" y="206" font-family="system-ui, sans-serif" font-size="13" text-anchor="middle" fill="#b33a3a">−31</text><text x="688.96875" y="186" font-family="system-ui, sans-serif" font-size="15" font-weight="700" text-anchor="middle">8</text><text x="688.96875" y="206" font-family="system-ui, sans-serif" font-size="13" text-anchor="middle" fill="#555555">0</text><text x="40" y="248" font-family="system-ui, sans-serif" font-size="15" font-weight="700">Harmonics 9–16</text><text x="71" y="412" font-family="system-ui, sans-serif" font-size="15" font-weight="700" text-anchor="middle">9</text><text x="71" y="432" font-family="system-ui, sans-serif" font-size="13" text-anchor="middle" fill="#555555">+4</text><text x="159.28125" y="412" font-family="system-ui, sans-serif" font-size="15" font-weight="700" text-anchor="middle">10</text><text x="159.28125" y="432" font-family="system-ui, sans-serif" font-size="13" text-anchor="middle" fill="#555555">−14</text><text x="247.5625" y="412" font-family="system-ui, sans-serif" font-size="15" font-weight="700" text-anchor="middle">11</text><text x="247.5625" y="432" font-family="system-ui, sans-serif" font-size="13" text-anchor="middle" fill="#b33a3a">+49</text><text x="335.84375" y="412" font-family="system-ui, sans-serif" font-size="15" font-weight="700" text-anchor="middle">12</text><text x="335.84375" y="432" font-family="system-ui, sans-serif" font-size="13" text-anchor="middle" fill="#555555">+2</text><text x="424.125" y="412" font-family="system-ui, sans-serif" font-size="15" font-weight="700" text-anchor="middle">13</text><text x="424.125" y="432" font-family="system-ui, sans-serif" font-size="13" text-anchor="middle" fill="#b33a3a">+41</text><text x="512.40625" y="412" font-family="system-ui, sans-serif" font-size="15" font-weight="700" text-anchor="middle">14</text><text x="512.40625" y="432" font-family="system-ui, sans-serif" font-size="13" text-anchor="middle" fill="#b33a3a">−31</text><text x="600.6875" y="412" font-family="system-ui, sans-serif" font-size="15" font-weight="700" text-anchor="middle">15</text><text x="600.6875" y="432" font-family="system-ui, sans-serif" font-size="13" text-anchor="middle" fill="#555555">−12</text><text x="688.96875" y="412" font-family="system-ui, sans-serif" font-size="15" font-weight="700" text-anchor="middle">16</text><text x="688.96875" y="432" font-family="system-ui, sans-serif" font-size="13" text-anchor="middle" fill="#555555">0</text><text x="40" y="468" font-family="system-ui, sans-serif" font-size="13" fill="#555555">Under each note: the harmonic number, then how far that harmonic falls from the nearest equal-tempered key, in cents.</text></g><g class="vf-stave" id="vf-auto1001"><path fill="none" d="M40 74.5L840 74.5"></path><path fill="none" d="M40 84.5L840 84.5"></path><path fill="none" d="M40 94.5L840 94.5"></path><path fill="none" d="M40 104.5L840 104.5"></path><path fill="none" d="M40 114.5L840 114.5"></path></g><g class="vf-stavebarline" id="vf-auto1002"><rect x="40" y="74" width="1" height="41" stroke="none"></rect></g><g class="vf-stavebarline" id="vf-auto1003"><rect x="840" y="74" width="1" height="41" stroke="none"></rect></g><g class="vf-clef" id="vf-auto1004"><path d="M252 262Q122 257 61 187Q-1 116 0 39Q0 -23 31 -65Q62 -108 123 -110Q171 -109 200 -80Q228 -51 229 -4Q228 45 199 72Q171 100 133 100Q113 100 103 97Q92 93 83 93Q73 93 70 98Q67 103 67 111Q68 144 110 183Q152 221 229 224Q308 222 345 152Q381 82 381 -37Q380 -243 283 -376Q186 -508 10 -605Q3 -609 -1 -613Q-5 -617 -5 -623Q-5 -628 -2 -631Q1 -635 8 -635Q16 -635 25 -630Q218 -542 370 -398Q522 -254 531 -28Q530 104 456 182Q383 260 252 262ZM629 180Q605 179 590 164Q575 149 574 125Q575 101 590 86Q605 71 629 70Q653 71 668 86Q683 101 684 125Q683 149 668 164Q653 179 629 180ZM630 -71Q606 -71 591 -86Q576 -101 576 -125Q576 -149 591 -164Q606 -179 630 -179Q654 -179 669 -164Q684 -149 684 -125Q684 -101 669 -86Q654 -71 630 -71Z" transform="translate(45.000 84.000) scale(0.040000 -0.040000)" fill="black"/></g><g class="vf-stavenote" id="vf-auto1005"><path stroke-width="2" fill="none" stroke="#444" d="M62 124L76 124"></path><path stroke-width="2" fill="none" stroke="#444" d="M62 134L76 134"></path><g class="vf-notehead" id="vf-auto1009"><path d="M216 125Q115 124 58 89Q1 54 0 2Q-1 -50 47 -87Q95 -123 206 -125Q327 -124 376 -88Q424 -52 422 2Q418 56 354 90Q290 124 216 125ZM111 63Q120 88 143 96Q166 104 190 103Q243 100 278 59Q313 17 314 -31Q314 -55 303 -73Q293 -91 268 -98Q260 -100 253 -101Q245 -102 237 -102Q209 -101 184 -86Q159 -72 143 -50Q128 -32 118 -9Q108 15 108 39Q108 51 111 63Z" transform="translate(65.000 134.000) scale(0.040000 -0.040000)" fill="black"/></g><rect x="65" y="124" width="8" height="13" opacity="0" pointer-events="auto"></rect></g><g class="vf-stavenote" id="vf-auto1010"><g class="vf-notehead" id="vf-auto1014"><path d="M216 125Q115 124 58 89Q1 54 0 2Q-1 -50 47 -87Q95 -123 206 -125Q327 -124 376 -88Q424 -52 422 2Q418 56 354 90Q290 124 216 125ZM111 63Q120 88 143 96Q166 104 190 103Q243 100 278 59Q313 17 314 -31Q314 -55 303 -73Q293 -91 268 -98Q260 -100 253 -101Q245 -102 237 -102Q209 -101 184 -86Q159 -72 143 -50Q128 -32 118 -9Q108 15 108 39Q108 51 111 63Z" transform="translate(153.281 99.000) scale(0.040000 -0.040000)" fill="black"/></g><rect x="153.281" y="89" width="8" height="13" opacity="0" pointer-events="auto"></rect></g><g class="vf-stavenote" id="vf-auto1015"><g class="vf-notehead" id="vf-auto1019"><path d="M216 125Q115 124 58 89Q1 54 0 2Q-1 -50 47 -87Q95 -123 206 -125Q327 -124 376 -88Q424 -52 422 2Q418 56 354 90Q290 124 216 125ZM111 63Q120 88 143 96Q166 104 190 103Q243 100 278 59Q313 17 314 -31Q314 -55 303 -73Q293 -91 268 -98Q260 -100 253 -101Q245 -102 237 -102Q209 -101 184 -86Q159 -72 143 -50Q128 -32 118 -9Q108 15 108 39Q108 51 111 63Z" transform="translate(241.563 79.000) scale(0.040000 -0.040000)" fill="black"/></g><rect x="241.563" y="69" width="8" height="13" opacity="0" pointer-events="auto"></rect></g><g class="vf-stavenote" id="vf-auto1020"><path stroke-width="2" fill="none" stroke="#444" d="M326.844 64L340.844 64"></path><g class="vf-notehead" id="vf-auto1024"><path d="M216 125Q115 124 58 89Q1 54 0 2Q-1 -50 47 -87Q95 -123 206 -125Q327 -124 376 -88Q424 -52 422 2Q418 56 354 90Q290 124 216 125ZM111 63Q120 88 143 96Q166 104 190 103Q243 100 278 59Q313 17 314 -31Q314 -55 303 -73Q293 -91 268 -98Q260 -100 253 -101Q245 -102 237 -102Q209 -101 184 -86Q159 -72 143 -50Q128 -32 118 -9Q108 15 108 39Q108 51 111 63Z" transform="translate(329.844 64.000) scale(0.040000 -0.040000)" fill="black"/></g><rect x="329.844" y="54" width="8" height="13" opacity="0" pointer-events="auto"></rect></g><g class="vf-stavenote" id="vf-auto1025"><path stroke-width="2" fill="none" stroke="#444" d="M415.125 64L429.125 64"></path><path stroke-width="2" fill="none" stroke="#444" d="M415.125 54L429.125 54"></path><g class="vf-notehead" id="vf-auto1029"><path d="M216 125Q115 124 58 89Q1 54 0 2Q-1 -50 47 -87Q95 -123 206 -125Q327 -124 376 -88Q424 -52 422 2Q418 56 354 90Q290 124 216 125ZM111 63Q120 88 143 96Q166 104 190 103Q243 100 278 59Q313 17 314 -31Q314 -55 303 -73Q293 -91 268 -98Q260 -100 253 -101Q245 -102 237 -102Q209 -101 184 -86Q159 -72 143 -50Q128 -32 118 -9Q108 15 108 39Q108 51 111 63Z" transform="translate(418.125 54.000) scale(0.040000 -0.040000)" fill="black"/></g><rect x="418.125" y="44" width="8" height="13" opacity="0" pointer-events="auto"></rect></g><g class="vf-stavenote" id="vf-auto1030"><path stroke-width="2" fill="none" stroke="#444" d="M503.406 64L517.406 64"></path><path stroke-width="2" fill="none" stroke="#444" d="M503.406 54L517.406 54"></path><path stroke-width="2" fill="none" stroke="#444" d="M503.406 44L517.406 44"></path><g class="vf-notehead" id="vf-auto1034"><path d="M216 125Q115 124 58 89Q1 54 0 2Q-1 -50 47 -87Q95 -123 206 -125Q327 -124 376 -88Q424 -52 422 2Q418 56 354 90Q290 124 216 125ZM111 63Q120 88 143 96Q166 104 190 103Q243 100 278 59Q313 17 314 -31Q314 -55 303 -73Q293 -91 268 -98Q260 -100 253 -101Q245 -102 237 -102Q209 -101 184 -86Q159 -72 143 -50Q128 -32 118 -9Q108 15 108 39Q108 51 111 63Z" transform="translate(506.406 44.000) scale(0.040000 -0.040000)" fill="black"/></g><rect x="506.406" y="34" width="8" height="13" opacity="0" pointer-events="auto"></rect></g><g class="vf-stavenote" id="vf-auto1035"><path stroke-width="2" fill="none" stroke="#444" d="M591.688 64L605.688 64"></path><path stroke-width="2" fill="none" stroke="#444" d="M591.688 54L605.688 54"></path><path stroke-width="2" fill="none" stroke="#444" d="M591.688 44L605.688 44"></path><path stroke-width="2" fill="none" stroke="#444" d="M591.688 34L605.688 34"></path><g class="vf-notehead" id="vf-auto1039"><path d="M216 125Q115 124 58 89Q1 54 0 2Q-1 -50 47 -87Q95 -123 206 -125Q327 -124 376 -88Q424 -52 422 2Q418 56 354 90Q290 124 216 125ZM111 63Q120 88 143 96Q166 104 190 103Q243 100 278 59Q313 17 314 -31Q314 -55 303 -73Q293 -91 268 -98Q260 -100 253 -101Q245 -102 237 -102Q209 -101 184 -86Q159 -72 143 -50Q128 -32 118 -9Q108 15 108 39Q108 51 111 63Z" transform="translate(594.688 34.000) scale(0.040000 -0.040000)" fill="black"/><path d="M12 -170Q17 -175 21 -175Q23 -175 25 -174Q27 -173 27 -173Q49 -160 68 -142Q87 -125 106 -112Q172 -65 199 -21Q227 22 226 57Q225 100 198 125Q172 150 136 153Q123 153 107 148Q92 143 81 136Q76 132 70 127Q63 122 59 122Q58 122 57 122Q55 122 54 123Q49 125 46 130Q43 135 43 140Q44 170 47 282Q50 393 50 422Q50 430 44 435Q39 439 31 439Q20 439 11 432Q1 425 0 411Q0 376 3 124Q6 -127 12 -170ZM47 -81Q47 -78 46 -46Q44 -13 44 19Q44 31 45 40Q45 48 46 51Q53 67 75 83Q97 99 116 100Q138 99 147 80Q157 62 157 42Q155 1 129 -36Q102 -72 68 -93Q62 -96 58 -96Q51 -96 49 -90Q47 -85 47 -81Z" transform="translate(583.688 34.000) scale(0.040000 -0.040000)" fill="black"/></g><rect x="583.688" y="24" width="19" height="13" opacity="0" pointer-events="auto"></rect></g><g class="vf-stavenote" id="vf-auto1041"><path stroke-width="2" fill="none" stroke="#444" d="M679.969 64L693.969 64"></path><path stroke-width="2" fill="none" stroke="#444" d="M679.969 54L693.969 54"></path><path stroke-width="2" fill="none" stroke="#444" d="M679.969 44L693.969 44"></path><path stroke-width="2" fill="none" stroke="#444" d="M679.969 34L693.969 34"></path><g class="vf-notehead" id="vf-auto1045"><path d="M216 125Q115 124 58 89Q1 54 0 2Q-1 -50 47 -87Q95 -123 206 -125Q327 -124 376 -88Q424 -52 422 2Q418 56 354 90Q290 124 216 125ZM111 63Q120 88 143 96Q166 104 190 103Q243 100 278 59Q313 17 314 -31Q314 -55 303 -73Q293 -91 268 -98Q260 -100 253 -101Q245 -102 237 -102Q209 -101 184 -86Q159 -72 143 -50Q128 -32 118 -9Q108 15 108 39Q108 51 111 63Z" transform="translate(682.969 29.000) scale(0.040000 -0.040000)" fill="black"/></g><rect x="682.969" y="19" width="8" height="13" opacity="0" pointer-events="auto"></rect></g><g class="vf-stave" id="vf-auto1047"><path fill="none" d="M40 300.5L840 300.5"></path><path fill="none" d="M40 310.5L840 310.5"></path><path fill="none" d="M40 320.5L840 320.5"></path><path fill="none" d="M40 330.5L840 330.5"></path><path fill="none" d="M40 340.5L840 340.5"></path></g><g class="vf-stavebarline" id="vf-auto1048"><rect x="40" y="300" width="1" height="41" stroke="none"></rect></g><g class="vf-stavebarline" id="vf-auto1049"><rect x="840" y="300" width="1" height="41" stroke="none"></rect></g><g class="vf-clef" id="vf-auto1050"><path d="M376 415Q375 424 376 427Q378 430 382 434Q465 510 518 605Q570 700 572 815Q572 881 555 942Q538 1002 507 1048Q495 1066 480 1081Q464 1097 455 1098Q444 1097 425 1082Q406 1067 390 1050Q335 987 313 903Q291 819 292 739Q292 695 296 651Q301 607 306 575Q308 567 307 562Q306 558 297 551Q184 463 95 350Q5 237 0 87Q0 -48 90 -148Q180 -247 364 -252Q382 -252 400 -250Q418 -249 433 -246Q441 -244 444 -245Q447 -246 448 -255Q458 -307 466 -363Q474 -419 475 -456Q471 -563 418 -594Q365 -625 316 -622Q276 -621 256 -612Q236 -603 236 -593Q236 -588 243 -584Q251 -581 268 -576Q293 -570 313 -547Q334 -525 335 -482Q335 -440 310 -410Q285 -381 239 -380Q188 -381 160 -414Q132 -447 132 -495Q130 -548 170 -601Q211 -654 322 -658Q378 -661 446 -622Q513 -582 519 -458Q518 -413 509 -353Q499 -293 490 -244Q488 -236 491 -233Q493 -231 503 -227Q580 -196 625 -135Q670 -74 671 11Q670 110 606 180Q542 249 430 252Q411 251 407 254Q402 257 401 270ZM470 943Q495 943 512 923Q529 902 530 861Q527 778 473 710Q419 643 356 591Q351 586 348 588Q344 589 343 599Q340 619 339 643Q337 667 337 691Q340 809 381 876Q422 942 470 943ZM361 262Q364 249 361 245Q359 242 346 238Q279 214 241 162Q202 109 201 44Q202 -24 233 -70Q264 -115 316 -133Q322 -135 330 -137Q337 -139 343 -139Q349 -139 352 -136Q355 -133 355 -128Q355 -123 350 -120Q346 -117 340 -115Q308 -101 288 -72Q269 -43 268 -8Q269 35 295 66Q322 96 368 109Q380 112 383 111Q387 109 388 101L438 -197Q440 -205 437 -207Q435 -209 424 -211Q412 -213 398 -215Q383 -216 368 -216Q235 -214 158 -150Q82 -86 80 20Q78 64 95 123Q113 181 173 252Q218 301 254 334Q291 366 326 394Q333 400 336 399Q339 398 340 390ZM430 103Q428 112 430 115Q432 118 441 117Q503 110 545 66Q587 21 589 -46Q588 -94 563 -130Q538 -167 495 -188Q486 -193 483 -192Q480 -191 479 -182Z" transform="translate(45.000 330.000) scale(0.040000 -0.040000)" fill="black"/></g><g class="vf-stavenote" id="vf-auto1051"><g class="vf-notehead" id="vf-auto1055"><path d="M216 125Q115 124 58 89Q1 54 0 2Q-1 -50 47 -87Q95 -123 206 -125Q327 -124 376 -88Q424 -52 422 2Q418 56 354 90Q290 124 216 125ZM111 63Q120 88 143 96Q166 104 190 103Q243 100 278 59Q313 17 314 -31Q314 -55 303 -73Q293 -91 268 -98Q260 -100 253 -101Q245 -102 237 -102Q209 -101 184 -86Q159 -72 143 -50Q128 -32 118 -9Q108 15 108 39Q108 51 111 63Z" transform="translate(65.000 310.000) scale(0.040000 -0.040000)" fill="black"/></g><rect x="65" y="300" width="8" height="13" opacity="0" pointer-events="auto"></rect></g><g class="vf-stavenote" id="vf-auto1056"><g class="vf-notehead" id="vf-auto1060"><path d="M216 125Q115 124 58 89Q1 54 0 2Q-1 -50 47 -87Q95 -123 206 -125Q327 -124 376 -88Q424 -52 422 2Q418 56 354 90Q290 124 216 125ZM111 63Q120 88 143 96Q166 104 190 103Q243 100 278 59Q313 17 314 -31Q314 -55 303 -73Q293 -91 268 -98Q260 -100 253 -101Q245 -102 237 -102Q209 -101 184 -86Q159 -72 143 -50Q128 -32 118 -9Q108 15 108 39Q108 51 111 63Z" transform="translate(153.281 305.000) scale(0.040000 -0.040000)" fill="black"/></g><rect x="153.281" y="295" width="8" height="13" opacity="0" pointer-events="auto"></rect></g><g class="vf-stavenote" id="vf-auto1061"><g class="vf-notehead" id="vf-auto1065"><path d="M216 125Q115 124 58 89Q1 54 0 2Q-1 -50 47 -87Q95 -123 206 -125Q327 -124 376 -88Q424 -52 422 2Q418 56 354 90Q290 124 216 125ZM111 63Q120 88 143 96Q166 104 190 103Q243 100 278 59Q313 17 314 -31Q314 -55 303 -73Q293 -91 268 -98Q260 -100 253 -101Q245 -102 237 -102Q209 -101 184 -86Q159 -72 143 -50Q128 -32 118 -9Q108 15 108 39Q108 51 111 63Z" transform="translate(241.563 300.000) scale(0.040000 -0.040000)" fill="black"/><path d="M237 118Q242 120 246 125Q249 130 249 135V206Q249 210 247 212Q245 214 242 214Q241 214 240 214Q238 214 237 213Q236 213 226 209Q217 205 212 204Q207 204 202 208Q198 211 198 217V339Q198 344 194 347Q190 350 184 350Q176 350 172 347Q168 344 168 339V209Q167 201 165 193Q162 185 155 180Q145 174 125 166Q106 159 92 155Q85 156 83 162Q80 169 80 175V295Q80 300 76 303Q71 306 66 306Q58 306 54 303Q50 300 50 295V160Q50 149 46 142Q43 135 38 133Q32 130 23 126Q13 122 12 122Q7 120 3 116Q0 111 0 106V35Q0 26 9 26L11 27Q12 27 20 31Q28 34 35 37L36 38Q42 38 46 32Q50 26 50 20V-79Q50 -87 47 -93Q44 -100 39 -102Q33 -104 23 -108Q13 -112 12 -113Q7 -115 3 -119Q0 -124 0 -129V-200Q0 -209 9 -209L11 -208Q12 -208 20 -205Q28 -202 35 -199Q37 -198 38 -198Q43 -199 47 -204Q50 -210 50 -214V-337Q50 -342 54 -345Q58 -348 63 -348Q71 -348 75 -345Q80 -342 80 -337V-198Q80 -188 83 -183Q86 -177 90 -176L151 -151Q152 -151 152 -151L154 -150Q161 -151 164 -157Q168 -163 168 -168V-293Q168 -298 172 -301Q176 -304 181 -304Q189 -304 194 -301Q198 -298 198 -293V-151Q198 -145 201 -138Q204 -131 209 -128Q215 -125 226 -121Q236 -117 237 -117Q242 -115 246 -110Q249 -105 249 -100V-29Q249 -25 247 -23Q245 -21 242 -21Q241 -21 240 -21Q238 -21 237 -22L211 -32Q206 -32 202 -27Q198 -23 198 -14V79Q198 85 202 95Q205 105 211 108ZM168 -45Q161 -61 136 -72Q111 -84 92 -85Q87 -85 84 -84Q81 -82 80 -80Q79 -76 78 -62Q77 -48 77 -30Q77 -6 78 16Q79 37 80 44Q84 58 108 69Q132 81 153 82Q158 82 162 81Q166 79 168 76Q170 72 171 56Q172 40 172 19Q172 -2 171 -20Q170 -38 168 -45Z" transform="translate(230.563 300.000) scale(0.040000 -0.040000)" fill="black"/></g><rect x="230.563" y="290" width="19" height="13" opacity="0" pointer-events="auto"></rect></g><g class="vf-stavenote" id="vf-auto1067"><g class="vf-notehead" id="vf-auto1071"><path d="M216 125Q115 124 58 89Q1 54 0 2Q-1 -50 47 -87Q95 -123 206 -125Q327 -124 376 -88Q424 -52 422 2Q418 56 354 90Q290 124 216 125ZM111 63Q120 88 143 96Q166 104 190 103Q243 100 278 59Q313 17 314 -31Q314 -55 303 -73Q293 -91 268 -98Q260 -100 253 -101Q245 -102 237 -102Q209 -101 184 -86Q159 -72 143 -50Q128 -32 118 -9Q108 15 108 39Q108 51 111 63Z" transform="translate(329.844 295.000) scale(0.040000 -0.040000)" fill="black"/></g><rect x="329.844" y="285" width="8" height="13" opacity="0" pointer-events="auto"></rect></g><g class="vf-stavenote" id="vf-auto1072"><path stroke-width="2" fill="none" stroke="#444" d="M415.125 290L429.125 290"></path><g class="vf-notehead" id="vf-auto1076"><path d="M216 125Q115 124 58 89Q1 54 0 2Q-1 -50 47 -87Q95 -123 206 -125Q327 -124 376 -88Q424 -52 422 2Q418 56 354 90Q290 124 216 125ZM111 63Q120 88 143 96Q166 104 190 103Q243 100 278 59Q313 17 314 -31Q314 -55 303 -73Q293 -91 268 -98Q260 -100 253 -101Q245 -102 237 -102Q209 -101 184 -86Q159 -72 143 -50Q128 -32 118 -9Q108 15 108 39Q108 51 111 63Z" transform="translate(418.125 290.000) scale(0.040000 -0.040000)" fill="black"/><path d="M12 -170Q17 -175 21 -175Q23 -175 25 -174Q27 -173 27 -173Q49 -160 68 -142Q87 -125 106 -112Q172 -65 199 -21Q227 22 226 57Q225 100 198 125Q172 150 136 153Q123 153 107 148Q92 143 81 136Q76 132 70 127Q63 122 59 122Q58 122 57 122Q55 122 54 123Q49 125 46 130Q43 135 43 140Q44 170 47 282Q50 393 50 422Q50 430 44 435Q39 439 31 439Q20 439 11 432Q1 425 0 411Q0 376 3 124Q6 -127 12 -170ZM47 -81Q47 -78 46 -46Q44 -13 44 19Q44 31 45 40Q45 48 46 51Q53 67 75 83Q97 99 116 100Q138 99 147 80Q157 62 157 42Q155 1 129 -36Q102 -72 68 -93Q62 -96 58 -96Q51 -96 49 -90Q47 -85 47 -81Z" transform="translate(407.125 290.000) scale(0.040000 -0.040000)" fill="black"/></g><rect x="407.125" y="280" width="19" height="13" opacity="0" pointer-events="auto"></rect></g><g class="vf-stavenote" id="vf-auto1078"><path stroke-width="2" fill="none" stroke="#444" d="M503.406 290L517.406 290"></path><g class="vf-notehead" id="vf-auto1082"><path d="M216 125Q115 124 58 89Q1 54 0 2Q-1 -50 47 -87Q95 -123 206 -125Q327 -124 376 -88Q424 -52 422 2Q418 56 354 90Q290 124 216 125ZM111 63Q120 88 143 96Q166 104 190 103Q243 100 278 59Q313 17 314 -31Q314 -55 303 -73Q293 -91 268 -98Q260 -100 253 -101Q245 -102 237 -102Q209 -101 184 -86Q159 -72 143 -50Q128 -32 118 -9Q108 15 108 39Q108 51 111 63Z" transform="translate(506.406 285.000) scale(0.040000 -0.040000)" fill="black"/><path d="M12 -170Q17 -175 21 -175Q23 -175 25 -174Q27 -173 27 -173Q49 -160 68 -142Q87 -125 106 -112Q172 -65 199 -21Q227 22 226 57Q225 100 198 125Q172 150 136 153Q123 153 107 148Q92 143 81 136Q76 132 70 127Q63 122 59 122Q58 122 57 122Q55 122 54 123Q49 125 46 130Q43 135 43 140Q44 170 47 282Q50 393 50 422Q50 430 44 435Q39 439 31 439Q20 439 11 432Q1 425 0 411Q0 376 3 124Q6 -127 12 -170ZM47 -81Q47 -78 46 -46Q44 -13 44 19Q44 31 45 40Q45 48 46 51Q53 67 75 83Q97 99 116 100Q138 99 147 80Q157 62 157 42Q155 1 129 -36Q102 -72 68 -93Q62 -96 58 -96Q51 -96 49 -90Q47 -85 47 -81Z" transform="translate(495.406 285.000) scale(0.040000 -0.040000)" fill="black"/></g><rect x="495.406" y="275" width="19" height="13" opacity="0" pointer-events="auto"></rect></g><g class="vf-stavenote" id="vf-auto1084"><path stroke-width="2" fill="none" stroke="#444" d="M591.688 290L605.688 290"></path><g class="vf-notehead" id="vf-auto1088"><path d="M216 125Q115 124 58 89Q1 54 0 2Q-1 -50 47 -87Q95 -123 206 -125Q327 -124 376 -88Q424 -52 422 2Q418 56 354 90Q290 124 216 125ZM111 63Q120 88 143 96Q166 104 190 103Q243 100 278 59Q313 17 314 -31Q314 -55 303 -73Q293 -91 268 -98Q260 -100 253 -101Q245 -102 237 -102Q209 -101 184 -86Q159 -72 143 -50Q128 -32 118 -9Q108 15 108 39Q108 51 111 63Z" transform="translate(594.688 285.000) scale(0.040000 -0.040000)" fill="black"/><path d="M141 181Q140 181 139 181Q138 180 137 180Q134 179 102 169Q70 158 47 157Q42 157 40 158Q37 159 37 162V329Q37 334 33 338Q30 341 25 341H12Q7 341 3 338Q0 334 0 329V-186Q0 -195 9 -195L11 -194Q12 -194 13 -194Q14 -194 15 -193Q28 -187 59 -176Q90 -164 114 -163Q122 -163 126 -165Q131 -168 131 -174V-323Q131 -328 134 -332Q138 -335 143 -335H156Q161 -335 164 -332Q168 -328 168 -323V179Q168 183 166 185Q163 187 160 187Q159 187 158 187Q157 187 156 186ZM37 39Q40 51 71 64Q101 78 122 79Q131 80 131 74V-29Q128 -43 99 -56Q71 -69 49 -70Q44 -70 40 -68Q37 -67 37 -64Z" transform="translate(583.688 285.000) scale(0.040000 -0.040000)" fill="black"/></g><rect x="583.688" y="275" width="19" height="13" opacity="0" pointer-events="auto"></rect></g><g class="vf-stavenote" id="vf-auto1090"><path stroke-width="2" fill="none" stroke="#444" d="M679.969 290L693.969 290"></path><path stroke-width="2" fill="none" stroke="#444" d="M679.969 280L693.969 280"></path><g class="vf-notehead" id="vf-auto1094"><path d="M216 125Q115 124 58 89Q1 54 0 2Q-1 -50 47 -87Q95 -123 206 -125Q327 -124 376 -88Q424 -52 422 2Q418 56 354 90Q290 124 216 125ZM111 63Q120 88 143 96Q166 104 190 103Q243 100 278 59Q313 17 314 -31Q314 -55 303 -73Q293 -91 268 -98Q260 -100 253 -101Q245 -102 237 -102Q209 -101 184 -86Q159 -72 143 -50Q128 -32 118 -9Q108 15 108 39Q108 51 111 63Z" transform="translate(682.969 280.000) scale(0.040000 -0.040000)" fill="black"/></g><rect x="682.969" y="270" width="8" height="13" opacity="0" pointer-events="auto"></rect></g></svg>
